<svg width="24" height="24" viewBox="0 0 24 24" fill="none" xmlns="http://www.w3.org/2000/svg">
<g id="Frame">
<path id="Vector" d="M7.19999 12C7.19999 12.6365 6.94714 13.2469 6.49705 13.697C6.04696 14.1471 5.43651 14.4 4.79999 14.4C4.16347 14.4 3.55302 14.1471 3.10294 13.697C2.65285 13.2469 2.39999 12.6365 2.39999 12C2.39999 11.3635 2.65285 10.753 3.10294 10.3029C3.55302 9.85283 4.16347 9.59998 4.79999 9.59998C5.43651 9.59998 6.04696 9.85283 6.49705 10.3029C6.94714 10.753 7.19999 11.3635 7.19999 12ZM14.4 12C14.4 12.6365 14.1471 13.2469 13.697 13.697C13.247 14.1471 12.6365 14.4 12 14.4C11.3635 14.4 10.753 14.1471 10.3029 13.697C9.85285 13.2469 9.59999 12.6365 9.59999 12C9.59999 11.3635 9.85285 10.753 10.3029 10.3029C10.753 9.85283 11.3635 9.59998 12 9.59998C12.6365 9.59998 13.247 9.85283 13.697 10.3029C14.1471 10.753 14.4 11.3635 14.4 12ZM19.2 14.4C19.8365 14.4 20.447 14.1471 20.897 13.697C21.3471 13.2469 21.6 12.6365 21.6 12C21.6 11.3635 21.3471 10.753 20.897 10.3029C20.447 9.85283 19.8365 9.59998 19.2 9.59998C18.5635 9.59998 17.953 9.85283 17.5029 10.3029C17.0528 10.753 16.8 11.3635 16.8 12C16.8 12.6365 17.0528 13.2469 17.5029 13.697C17.953 14.1471 18.5635 14.4 19.2 14.4Z" fill="white"/>
</g>
</svg>
