<svg width="32" height="33" viewBox="0 0 32 33" fill="none" xmlns="http://www.w3.org/2000/svg">
<g id="Frame" opacity="0.6">
<path id="Vector" d="M7.28802 8.38937C7.04706 8.2286 6.76697 8.13627 6.47764 8.12222C6.18832 8.10816 5.9006 8.17292 5.64519 8.30957C5.38979 8.44623 5.17627 8.64966 5.02742 8.89816C4.87857 9.14665 4.79997 9.4309 4.80002 9.72057V22.5206C4.79997 22.8102 4.87857 23.0945 5.02742 23.343C5.17627 23.5915 5.38979 23.7949 5.64519 23.9316C5.9006 24.0682 6.18832 24.133 6.47764 24.1189C6.76697 24.1049 7.04706 24.0125 7.28802 23.8518L16 18.0438V22.5206C16 22.8102 16.0786 23.0945 16.2274 23.343C16.3763 23.5915 16.5898 23.7949 16.8452 23.9316C17.1006 24.0682 17.3883 24.133 17.6776 24.1189C17.967 24.1049 18.2471 24.0125 18.488 23.8518L28.088 17.4518C28.3071 17.3056 28.4868 17.1077 28.6111 16.8755C28.7354 16.6433 28.8004 16.3839 28.8004 16.1206C28.8004 15.8572 28.7354 15.5979 28.6111 15.3657C28.4868 15.1334 28.3071 14.9355 28.088 14.7894L18.488 8.38937C18.2471 8.2286 17.967 8.13627 17.6776 8.12222C17.3883 8.10816 17.1006 8.17292 16.8452 8.30957C16.5898 8.44623 16.3763 8.64966 16.2274 8.89816C16.0786 9.14665 16 9.4309 16 9.72057V14.1974L7.28802 8.38937Z" fill="white"/>
</g>
</svg>
