<svg width="16" height="21" viewBox="0 0 16 21" fill="none" xmlns="http://www.w3.org/2000/svg">
<path id="&#244;&#128;&#138;&#134;" d="M1.87128 20.1205H4.72956C5.96117 20.1205 6.5886 19.4918 6.5886 18.2579V1.99476C6.5886 0.760763 5.96117 0.155408 4.72956 0.120483H1.87128C0.628049 0.120483 0.000622513 0.760763 0.000622513 1.99476V18.2579C-0.0226155 19.4918 0.604811 20.1205 1.87128 20.1205ZM11.2711 20.1205H14.141C15.3726 20.1205 16 19.4918 16 18.2579V1.99476C16 0.760763 15.3726 0.120483 14.141 0.120483H11.2711C10.0394 0.120483 9.41202 0.760763 9.41202 1.99476V18.2579C9.41202 19.4918 10.0162 20.1205 11.2711 20.1205Z" fill="black"/>
</svg>
