<svg width="48" height="49" viewBox="0 0 48 49" fill="none" xmlns="http://www.w3.org/2000/svg">
<g id="Frame" clip-path="url(#clip0_1_39)">
<path id="Vector" fill-rule="evenodd" clip-rule="evenodd" d="M24 48.1205C30.3652 48.1205 36.4697 45.5919 40.9706 41.091C45.4714 36.5902 48 30.4857 48 24.1205C48 17.7553 45.4714 11.6508 40.9706 7.14992C36.4697 2.64905 30.3652 0.120483 24 0.120483C17.6348 0.120483 11.5303 2.64905 7.02944 7.14992C2.52856 11.6508 0 17.7553 0 24.1205C0 30.4857 2.52856 36.5902 7.02944 41.091C11.5303 45.5919 17.6348 48.1205 24 48.1205ZM22.665 15.6245C22.2132 15.323 21.688 15.1499 21.1455 15.1236C20.6031 15.0972 20.0636 15.2186 19.5847 15.4749C19.1058 15.7311 18.7055 16.1125 18.4264 16.5785C18.1473 17.0444 17.9999 17.5774 18 18.1205V30.1205C17.9999 30.6636 18.1473 31.1966 18.4264 31.6625C18.7055 32.1284 19.1058 32.5099 19.5847 32.7661C20.0636 33.0223 20.6031 33.1437 21.1455 33.1174C21.688 33.091 22.2132 32.9179 22.665 32.6165L31.665 26.6165C32.0759 26.3425 32.4128 25.9714 32.6458 25.5359C32.8788 25.1005 33.0007 24.6143 33.0007 24.1205C33.0007 23.6266 32.8788 23.1404 32.6458 22.705C32.4128 22.2696 32.0759 21.8985 31.665 21.6245L22.665 15.6245Z" fill="white"/>
</g>
<defs>
<clipPath id="clip0_1_39">
<rect width="48" height="48" fill="white" transform="translate(0 0.120483)"/>
</clipPath>
</defs>
</svg>
