<svg width="32" height="33" viewBox="0 0 32 33" fill="none" xmlns="http://www.w3.org/2000/svg">
<g id="Frame" opacity="0.6">
<path id="Vector" d="M24.712 8.38937C24.9529 8.2286 25.233 8.13627 25.5224 8.12222C25.8117 8.10816 26.0994 8.17292 26.3548 8.30957C26.6102 8.44623 26.8237 8.64966 26.9726 8.89816C27.1214 9.14665 27.2 9.4309 27.2 9.72057V22.5206C27.2 22.8102 27.1214 23.0945 26.9726 23.343C26.8237 23.5915 26.6102 23.7949 26.3548 23.9316C26.0994 24.0682 25.8117 24.133 25.5224 24.1189C25.233 24.1049 24.9529 24.0125 24.712 23.8518L16 18.0438V22.5206C16 22.8102 15.9214 23.0945 15.7726 23.343C15.6237 23.5915 15.4102 23.7949 15.1548 23.9316C14.8994 24.0682 14.6117 24.133 14.3224 24.1189C14.033 24.1049 13.7529 24.0125 13.512 23.8518L3.91198 17.4518C3.69285 17.3056 3.51318 17.1077 3.38891 16.8755C3.26465 16.6433 3.19963 16.3839 3.19963 16.1206C3.19963 15.8572 3.26465 15.5979 3.38891 15.3657C3.51318 15.1334 3.69285 14.9355 3.91198 14.7894L13.512 8.38937C13.7529 8.2286 14.033 8.13627 14.3224 8.12222C14.6117 8.10816 14.8994 8.17292 15.1548 8.30957C15.4102 8.44623 15.6237 8.64966 15.7726 8.89816C15.9214 9.14665 16 9.4309 16 9.72057V14.1974L24.712 8.38937Z" fill="white"/>
</g>
</svg>
