<svg width="20" height="16" viewBox="0 0 20 16" fill="none" xmlns="http://www.w3.org/2000/svg">
<path id="Vector" fill-rule="evenodd" clip-rule="evenodd" d="M9.31444 0.478175C9.51743 0.560531 9.6909 0.699934 9.81292 0.87876C9.93495 1.05758 10.0001 1.2678 10 1.48283V14.5303C9.99995 14.7453 9.93476 14.9555 9.81267 15.1342C9.69057 15.313 9.51706 15.4523 9.31406 15.5346C9.11106 15.6169 8.88769 15.6384 8.67218 15.5965C8.45668 15.5545 8.25872 15.451 8.10333 15.299L3.98444 11.2684H1.11111C0.816426 11.2684 0.53381 11.1539 0.325437 10.95C0.117063 10.7461 0 10.4695 0 10.1811V5.83199C0 5.54362 0.117063 5.26706 0.325437 5.06316C0.53381 4.85925 0.816426 4.7447 1.11111 4.7447H3.98444L8.10333 0.714117C8.25871 0.561969 8.45672 0.458341 8.67231 0.416342C8.88789 0.374343 9.11136 0.395862 9.31444 0.478175ZM15.1744 0.318343C15.3828 0.114508 15.6654 0 15.96 0C16.2546 0 16.5372 0.114508 16.7456 0.318343C17.7787 1.32697 18.598 2.52538 19.1565 3.84476C19.715 5.16413 20.0017 6.57848 20 8.00657C20.0017 9.43465 19.715 10.849 19.1565 12.1684C18.598 13.4877 17.7787 14.6862 16.7456 15.6948C16.536 15.8928 16.2553 16.0024 15.964 16C15.6727 15.9975 15.394 15.8831 15.188 15.6815C14.982 15.4799 14.8651 15.2072 14.8626 14.9222C14.86 14.6371 14.972 14.3624 15.1744 14.1574C16.0013 13.3507 16.6569 12.3919 17.1037 11.3363C17.5505 10.2807 17.7796 9.14911 17.7778 8.00657C17.7778 5.60366 16.7844 3.43125 15.1744 1.85577C14.9661 1.65187 14.8491 1.37537 14.8491 1.08706C14.8491 0.798747 14.9661 0.52224 15.1744 0.318343ZM12.0311 3.3932C12.1343 3.2921 12.2568 3.21191 12.3917 3.15719C12.5266 3.10247 12.6712 3.07431 12.8172 3.07431C12.9632 3.07431 13.1078 3.10247 13.2427 3.15719C13.3776 3.21191 13.5001 3.2921 13.6033 3.3932C14.2232 3.99845 14.7148 4.71759 15.0498 5.50929C15.3848 6.30099 15.5567 7.14967 15.5556 8.00657C15.5566 8.86345 15.3847 9.71211 15.0497 10.5038C14.7147 11.2955 14.2232 12.0146 13.6033 12.6199C13.3948 12.824 13.1121 12.9386 12.8172 12.9386C12.5224 12.9386 12.2396 12.824 12.0311 12.6199C11.8226 12.4159 11.7055 12.1392 11.7055 11.8507C11.7055 11.5621 11.8226 11.2854 12.0311 11.0814C12.4446 10.6782 12.7726 10.199 12.9961 9.67127C13.2196 9.14356 13.3342 8.5778 13.3333 8.00657C13.3342 7.43532 13.2196 6.86955 12.9962 6.34183C12.7727 5.8141 12.4447 5.33487 12.0311 4.93171C11.9278 4.83073 11.8458 4.71082 11.7899 4.57882C11.734 4.44683 11.7052 4.30534 11.7052 4.16245C11.7052 4.01957 11.734 3.87808 11.7899 3.74609C11.8458 3.61409 11.9278 3.49418 12.0311 3.3932Z" fill="white"/>
</svg>
